<svg width="1600" height="1000" viewBox="0 0 1600 1000" fill="none" xmlns="http://www.w3.org/2000/svg">
  <defs>
    <linearGradient id="bg" x1="0" y1="0" x2="1" y2="1">
      <stop offset="0%" stop-color="#0f2f56"/>
      <stop offset="100%" stop-color="#06172d"/>
    </linearGradient>
    <linearGradient id="card" x1="0" y1="0" x2="1" y2="1">
      <stop offset="0%" stop-color="#3c8dd6"/>
      <stop offset="100%" stop-color="#1e4f88"/>
    </linearGradient>
  </defs>

  <rect width="1600" height="1000" fill="url(#bg)"/>

  <g opacity="0.18" stroke="#b2dbff" stroke-width="2">
    <path d="M120 840H1480"/>
    <path d="M120 700H1480"/>
    <path d="M120 560H1480"/>
    <path d="M120 420H1480"/>
    <path d="M120 280H1480"/>
    <path d="M220 200V880"/>
    <path d="M460 200V880"/>
    <path d="M700 200V880"/>
    <path d="M940 200V880"/>
    <path d="M1180 200V880"/>
    <path d="M1420 200V880"/>
  </g>

  <g opacity="0.95">
    <rect x="190" y="220" rx="20" ry="20" width="520" height="300" fill="#0d2543" stroke="#4a9ce0" stroke-opacity="0.6"/>
    <rect x="220" y="270" rx="8" width="120" height="20" fill="#6bb6ff"/>
    <rect x="220" y="320" rx="8" width="300" height="14" fill="#2f6ca5"/>
    <rect x="220" y="350" rx="8" width="250" height="14" fill="#2f6ca5"/>
    <rect x="220" y="380" rx="8" width="340" height="14" fill="#2f6ca5"/>
    <rect x="220" y="430" rx="10" width="170" height="38" fill="#2a76bf"/>
    <rect x="410" y="430" rx="10" width="120" height="38" fill="#1a4d81"/>

    <rect x="820" y="300" rx="22" width="560" height="460" fill="#0b2039" stroke="#4a9ce0" stroke-opacity="0.55"/>
    <rect x="860" y="350" rx="10" width="220" height="20" fill="#6bb6ff"/>
    <rect x="860" y="400" rx="10" width="470" height="16" fill="#2f6ca5"/>
    <rect x="860" y="435" rx="10" width="420" height="16" fill="#2f6ca5"/>
    <rect x="860" y="470" rx="10" width="500" height="16" fill="#2f6ca5"/>

    <rect x="860" y="525" rx="14" width="150" height="170" fill="url(#card)"/>
    <rect x="1030" y="565" rx="14" width="150" height="130" fill="url(#card)"/>
    <rect x="1200" y="485" rx="14" width="150" height="210" fill="url(#card)"/>
  </g>

  <g fill="#8fd0ff" opacity="0.65">
    <circle cx="220" cy="120" r="8"/>
    <circle cx="1450" cy="160" r="10"/>
    <circle cx="1320" cy="890" r="9"/>
    <circle cx="380" cy="900" r="7"/>
  </g>
</svg>
